<svg xmlns="http://www.w3.org/2000/svg" viewBox="0 0 200 200" width="200" height="200">
  <defs>
    <linearGradient id="cakeGrad2" x1="0%" y1="0%" x2="0%" y2="100%">
      <stop offset="0%" style="stop-color:#a29bfe;stop-opacity:1" />
      <stop offset="100%" style="stop-color:#6c5ce7;stop-opacity:1" />
    </linearGradient>
    <linearGradient id="frostingGrad2" x1="0%" y1="0%" x2="0%" y2="100%">
      <stop offset="0%" style="stop-color:#74b9ff;stop-opacity:1" />
      <stop offset="100%" style="stop-color:#0984e3;stop-opacity:1" />
    </linearGradient>
  </defs>
  
  <rect x="40" y="100" width="120" height="60" rx="8" fill="url(#cakeGrad2)" stroke="#4834df" stroke-width="2"/>
  
  <rect x="50" y="60" width="100" height="45" rx="6" fill="url(#frostingGrad2)" stroke="#0652DD" stroke-width="2"/>
  
  <ellipse cx="100" cy="60" rx="50" ry="10" fill="#fff" opacity="0.3"/>
  
  <rect x="65" y="30" width="6" height="30" fill="#ffbe76"/>
  <ellipse cx="68" cy="30" rx="4" ry="3" fill="#ff7675"/>
  <path d="M 68 22 Q 65 18 68 14 Q 71 18 68 22" fill="#e17055"/>
  
  <rect x="95" y="25" width="6" height="35" fill="#ffbe76"/>
  <ellipse cx="98" cy="25" rx="4" ry="3" fill="#ff7675"/>
  <path d="M 98 17 Q 95 13 98 9 Q 101 13 98 17" fill="#e17055"/>
  
  <rect x="125" y="30" width="6" height="30" fill="#ffbe76"/>
  <ellipse cx="128" cy="30" rx="4" ry="3" fill="#ff7675"/>
  <path d="M 128 22 Q 125 18 128 14 Q 131 18 128 22" fill="#e17055"/>
  
  <circle cx="70" cy="85" r="4" fill="#ffeaa7"/>
  <circle cx="90" cy="85" r="4" fill="#ffeaa7"/>
  <circle cx="110" cy="85" r="4" fill="#ffeaa7"/>
  <circle cx="130" cy="85" r="4" fill="#ffeaa7"/>
  <circle cx="80" cy="95" r="4" fill="#ffeaa7"/>
  <circle cx="100" cy="95" r="4" fill="#ffeaa7"/>
  <circle cx="120" cy="95" r="4" fill="#ffeaa7"/>
</svg>
